<?xml version="1.0" encoding="UTF-8" standalone="no"?>
<!DOCTYPE svg PUBLIC "-//W3C//DTD SVG 1.1//EN" "http://www.w3.org/Graphics/SVG/1.1/DTD/svg11.dtd">
<svg version="1.1" xmlns="http://www.w3.org/2000/svg" xmlns:xlink="http://www.w3.org/1999/xlink" preserveAspectRatio="xMidYMid meet" viewBox="0 0 100 50" width="100" height="50"><defs><path d="M77.73 5.59C87.33 12.23 72.61 11.35 75.63 14.25C79.34 17.79 95.56 20.72 95.56 25.04C95.56 27.3 87.42 30.48 80.06 31.26C74.85 31.82 70.02 29.9 68.77 31.26C65.94 34.34 82.21 37.83 79.14 43.86C76.07 49.89 59.78 50 47.78 50C21.41 50 0 38.81 0 25.04C0 11.26 21.41 0.07 47.78 0.07C59.12 0.07 68.14 -1.04 77.73 5.59Z" id="b2oRfUrb5N"></path><linearGradient id="gradientb1acm0wOpC" gradientUnits="userSpaceOnUse" x1="57.91" y1="8.39" x2="27.87" y2="35.52"><stop style="stop-color: #ff9f51;stop-opacity: 1" offset="0%"></stop><stop style="stop-color: #ff6000;stop-opacity: 1" offset="100%"></stop></linearGradient></defs><g><g><g><g><filter id="shadow6093663" x="-9" y="-9" width="117.56" height="68" filterUnits="userSpaceOnUse" primitiveUnits="userSpaceOnUse"><feFlood></feFlood><feComposite in2="SourceAlpha" operator="in"></feComposite><feGaussianBlur stdDeviation="0"></feGaussianBlur><feOffset dx="4" dy="0" result="afterOffset"></feOffset><feFlood flood-color="#f28787" flood-opacity="0.5"></feFlood><feComposite in2="afterOffset" operator="in"></feComposite><feMorphology operator="dilate" radius="0"></feMorphology><feComposite in2="SourceAlpha" operator="out"></feComposite></filter><path d="M77.73 5.59C87.33 12.23 72.61 11.35 75.63 14.25C79.34 17.79 95.56 20.72 95.56 25.04C95.56 27.3 87.42 30.48 80.06 31.26C74.85 31.82 70.02 29.9 68.77 31.26C65.94 34.34 82.21 37.83 79.14 43.86C76.07 49.89 59.78 50 47.78 50C21.41 50 0 38.81 0 25.04C0 11.26 21.41 0.07 47.78 0.07C59.12 0.07 68.14 -1.04 77.73 5.59Z" id="aaGk09CC3" fill="white" fill-opacity="1" filter="url(#shadow6093663)"></path></g><use xlink:href="#b2oRfUrb5N" opacity="1" fill="url(#gradientb1acm0wOpC)"></use></g></g></g></svg>